<?xml version="1.0" encoding="iso-8859-1"?>
<!-- Generator: Adobe Illustrator 19.0.0, SVG Export Plug-In . SVG Version: 6.00 Build 0)  -->
<svg version="1.1" id="Capa_1" xmlns="http://www.w3.org/2000/svg" xmlns:xlink="http://www.w3.org/1999/xlink" x="0px" y="0px"
	 viewBox="0 0 512 512" style="enable-background:new 0 0 512 512;" xml:space="preserve">
<polygon style="fill:#D7D7E6;" points="172.93,262 92,262 92,10 214.927,10 "/>
<polygon style="fill:#FF8C8C;" points="200.143,98.712 214.927,10 92,10 92,98.712 "/>
<polygon style="fill:#FFFFFF;" points="177.994,10 171,54 128.969,54 128.969,10 "/>
<polygon style="fill:#F5A55B;" points="472,126.277 432.335,262 79.665,262 40,126.277 10,126.277 10,502 502,502 502,126.277 "/>
<path style="fill:#E09248;" d="M336.911,262v-66.012c0-10.493,8.507-19,19-19h35.057c10.493,0,19,8.507,19,19V262H336.911z"/>
<rect x="348.65" y="90.89" style="fill:#D7D7E6;" width="49.575" height="86.1"/>
<path style="fill:#878791;" d="M469.98,98.712h21.416V73.163c0-34.884-28.279-63.163-63.163-63.163l0,0h-79.58l-3.262,11.089
	h-15.886L323.054,10h-33.919v69.796h33.919l6.451-11.089h15.886l3.262,22.178h49.575l0,0c0-11.528,9.345-20.873,20.873-20.873
	h22.178C457.13,70.011,469.98,82.861,469.98,98.712L469.98,98.712z"/>
<rect x="233" y="153.84" style="fill:#E09248;" width="64" height="108.16"/>
<path d="M502,116.277h-30c-4.442,0-8.352,2.931-9.599,7.195L452.311,158h-44.083V90.885c0-5.996,4.878-10.874,10.874-10.874h22.178
	c10.312,0,18.701,8.389,18.701,18.701c0,5.523,4.477,10,10,10h21.417c5.523,0,10-4.477,10-10V73.163
	C501.396,32.821,468.575,0,428.233,0h-79.58c-4.436,0-8.342,2.922-9.594,7.179l-1.15,3.91h-2.652l-3.559-6.118
	C329.907,1.894,326.615,0,323.054,0h-33.919c-5.523,0-10,4.477-10,10v69.796c0,5.523,4.477,10,10,10h33.919
	c3.561,0,6.853-1.894,8.644-4.972l3.559-6.118h1.498l1.898,12.909V158H307v-4.159c0-1.74-0.473-3.517-1.352-5.02l-32-55.128
	c-1.789-3.083-5.084-4.98-8.648-4.98s-6.859,1.897-8.648,4.98l-32,55.128c-0.879,1.503-1.352,3.28-1.352,5.02V158h-22.6
	l24.391-146.356c0.483-2.899-0.333-5.865-2.233-8.108c-1.9-2.243-4.691-3.536-7.63-3.536H92c-5.523,0-10,4.477-10,10v148H59.69
	l-10.091-34.528c-1.247-4.264-5.156-7.195-9.599-7.195H10c-5.523,0-10,4.477-10,10V502c0,5.522,4.477,10,10,10h492
	c5.523,0,10-4.478,10-10V126.277C512,120.754,507.523,116.277,502,116.277z M388.228,166.988h-29.575v-66.103h29.575V166.988z
	 M346.912,195.988c0-4.962,4.038-9,9-9h35.057c4.962,0,9,4.038,9,9V252h-53.057V195.988z M413.691,178h32.775l-21.626,74h-4.871
	v-56.012C419.969,189.196,417.616,182.948,413.691,178z M329.505,58.707c-3.561,0-6.853,1.894-8.644,4.972l-3.559,6.118h-18.168V20
	h18.168l3.559,6.118c1.791,3.078,5.083,4.971,8.644,4.971h15.886c4.436,0,8.342-2.922,9.594-7.179l1.15-3.91h72.098
	c29.314,0,53.164,23.849,53.164,53.163v15.549h-2.726c-4.419-16.509-19.508-28.701-37.392-28.701h-22.178
	c-13.525,0-25.047,8.743-29.212,20.874H357.29l-2.005-13.633c-0.722-4.908-4.933-8.545-9.894-8.545
	C345.391,58.707,329.505,58.707,329.505,58.707z M333.19,178c-3.925,4.948-6.278,11.196-6.278,17.988V252H307v-74H333.19z
	 M243,163.841h44V252h-44V163.841z M265,118.632l14.633,25.209h-29.266L265,118.632z M223,178v74h-38.266l12.333-74H223z
	 M102,108.712h86.338L164.458,252H102V108.712z M138.969,20h27.31l-3.815,24h-23.495V20z M118.969,20v34c0,5.523,4.477,10,10,10H171
	c4.917,0,9.104-3.574,9.876-8.43L186.53,20h16.593l-11.451,68.712H102V20H118.969z M82,178v56.34L65.535,178H82z M20,492V136.277
	h12.504l10.131,34.665c0.005,0.016,0.009,0.031,0.014,0.047l27.418,93.817c1.247,4.264,5.156,7.194,9.599,7.194h352.669
	c4.442,0,8.353-2.931,9.599-7.195l37.562-128.528H492V372H343.739c-5.523,0-10,4.478-10,10s4.477,10,10,10H492v60H318.604
	c-5.523,0-10,4.478-10,10s4.477,10,10,10H492v20H20z"/>
<path d="M50,452c-2.63,0-5.21,1.069-7.07,2.93C41.07,456.79,40,459.37,40,462s1.07,5.21,2.93,7.069C44.79,470.93,47.37,472,50,472
	s5.21-1.07,7.07-2.931C58.93,467.21,60,464.63,60,462s-1.07-5.21-2.93-7.07S52.63,452,50,452z"/>
<path d="M50,324.01c2.63,0,5.21-1.07,7.07-2.93s2.93-4.431,2.93-7.07c0-2.63-1.07-5.21-2.93-7.07c-1.86-1.859-4.44-2.93-7.07-2.93
	s-5.21,1.07-7.07,2.93S40,311.38,40,314.01c0,2.64,1.07,5.21,2.93,7.07C44.79,322.939,47.37,324.01,50,324.01z"/>
<path d="M462,324.01c2.63,0,5.21-1.07,7.07-2.93c1.86-1.86,2.93-4.431,2.93-7.07c0-2.63-1.07-5.21-2.93-7.07
	c-1.86-1.859-4.44-2.93-7.07-2.93s-5.21,1.07-7.07,2.93c-1.86,1.86-2.93,4.44-2.93,7.07s1.07,5.21,2.93,7.07
	C456.79,322.939,459.37,324.01,462,324.01z"/>
<path d="M278,452c-2.63,0-5.21,1.069-7.07,2.93c-1.86,1.86-2.93,4.44-2.93,7.07s1.07,5.21,2.93,7.069
	c1.86,1.86,4.44,2.931,7.07,2.931s5.21-1.07,7.07-2.931c1.86-1.859,2.93-4.439,2.93-7.069s-1.07-5.21-2.93-7.07S280.63,452,278,452z
	"/>
<path d="M223,412l-142.509,0.001c-5.523,0-10,4.478-10,10s4.477,10,10,10L223,432c5.523,0,10-4.478,10-10S228.523,412,223,412z"/>
<path d="M50,361.751h109.838c5.523,0,10-4.478,10-10s-4.477-10-10-10H50c-5.523,0-10,4.478-10,10S44.477,361.751,50,361.751z"/>
<path d="M301.105,372h-0.813c-5.523,0-10,4.478-10,10s4.477,10,10,10h0.813c5.523,0,10-4.478,10-10S306.628,372,301.105,372z"/>
<g>
</g>
<g>
</g>
<g>
</g>
<g>
</g>
<g>
</g>
<g>
</g>
<g>
</g>
<g>
</g>
<g>
</g>
<g>
</g>
<g>
</g>
<g>
</g>
<g>
</g>
<g>
</g>
<g>
</g>
</svg>
